<svg xmlns="http://www.w3.org/2000/svg" version="1.2" width="744.094" height="1052.362"><path d="M258.938 156.656c-42.408 0-76.781 34.374-76.781 76.781 0 42.408 34.374 76.781 76.781 76.781 42.408 0 76.781-34.374 76.781-76.781 0-42.408-34.374-76.781-76.781-76.781zm37.625 49.656c8.477 0 13.063 5.486 13.063 15.469 0 9.507-3.171 17.735-8.875 23.281-5.942 5.704-13.853 9.125-21.063 9.125-8.794 0-13.469-5.39-13.469-15.531 0-9.983 3.568-18.766 9.906-24.313 5.467-4.674 13.862-8.031 20.438-8.031zm-46.813 1.125c1.426 0 2.457.239 4.438 1.031l-2.938 5.875c-2.218-.951-3.261-1.219-4.688-1.219-3.486 0-6.655 2.088-19.094 12.625l4.438 12.094c4.041 11.33 5.171 14.034 7.469 18.313 2.298 4.199 5.071 6.5 7.844 6.5 2.694 0 4.441-1.33 7.531-5.688l.844 6.469c-2.931 1.109-4.354 1.375-6.969 1.375-5.863 0-10.67-2.07-14.156-6.031-2.852-3.248-5.249-8.72-8.656-19.813l-1.406-4.75c-.951-2.931-.962-3.028-1.438-4.375-.158-.634-.404-1.164-.563-1.719-2.535 9.904-3.803 11.959-13.469 21.625h9.594c-5.388 3.328-5.559 3.406-12.531 3.406h-10.844l3.5-3.406h3c6.101 0 9.035-2.862 12.125-11.656 1.268-3.645 2.356-7.753 4.813-17.656 1.03-4.437 1.931-7.69 2.406-9.75-1.664-.158-2.941-.25-3.813-.25-7.368 0-11.344 3.016-11.344 8.563 0 2.456.482 4.441 1.75 7.531l-6.5 2.781c-1.03-2.694-1.344-3.878-1.344-5.938 0-5.704 3.245-10.381 9.188-13.313 3.486-1.664 8.553-2.563 14.813-2.563 1.981 0 3.653.106 7.219.344-1.188 1.426-1.827 1.804-4.125 2.438l-4.125 16.563c1.347-1.03 2.294-1.731 2.531-1.969l16.656-13.625c3.645-3.011 5.308-3.813 7.844-3.813zm42.219 1.969c-10.775 0-19.25 11.499-19.25 26.156 0 9.745 4.273 15.438 11.563 15.438 5.863 0 11.249-3.479 14.656-9.5 2.535-4.516 4.188-11.322 4.188-17.344 0-9.191-4.105-14.75-11.156-14.75zm-37.125 33.594c.951 1.664 1.32 2.316 1.875 3.188.079.079.893 1.341 1.844 2.688-2.139 2.218-2.864 2.782-5.875 5-1.505-1.822-3.085-4.382-3.719-6.125l2.125-1.656.719-.563c.634-.555 1.272-1.087 1.906-1.563.475-.396.887-.731 1.125-.969zm64.969 0c.951 1.664 1.352 2.316 1.906 3.188.079.079.862 1.341 1.813 2.688-2.139 2.218-2.833 2.782-5.844 5-1.505-1.822-3.085-4.382-3.719-6.125l2.125-1.656.719-.563c.634-.555 1.272-1.087 1.906-1.563.475-.396.856-.731 1.094-.969z" fill="#333" stroke="#000" stroke-opacity=".569"/></svg>