<svg xmlns="http://www.w3.org/2000/svg" width="120" height="120"><rect width="120.763" height="121.525" x="-.254" fill="#fd5"/><path d="M60 932.751c-32.925 0-59.612 26.687-59.612 59.612s26.687 59.611 59.612 59.611 59.612-26.686 59.612-59.611-26.687-59.612-59.612-59.612zm29.211 38.552c6.582 0 10.142 4.259 10.142 12.01 0 7.381-2.462 13.77-6.89 18.075-4.613 4.429-10.755 7.085-16.353 7.085-6.828 0-10.457-4.184-10.457-12.058 0-7.75 2.77-14.57 7.691-18.876 4.244-3.629 10.762-6.235 15.867-6.235zm-36.345.873c1.107 0 1.907.186 3.445.801l-2.281 4.561c-1.722-.738-2.532-.946-3.639-.946-2.707 0-5.167 1.621-14.824 9.802l3.445 9.389c3.137 8.796 4.015 10.896 5.799 14.217 1.784 3.261 3.937 5.047 6.09 5.047 2.091 0 3.448-1.032 5.847-4.416l.655 5.022c-2.276.861-3.381 1.067-5.41 1.067-4.552 0-8.284-1.606-10.991-4.682-2.214-2.522-4.076-6.77-6.721-15.382l-1.092-3.688c-.738-2.276-.747-2.351-1.116-3.397-.123-.492-.314-.904-.437-1.334-1.968 7.689-2.952 9.284-10.457 16.789h7.448c-4.183 2.584-4.316 2.645-9.729 2.645h-8.419l2.717-2.645h2.329c4.736 0 7.015-2.222 9.414-9.049.984-2.83 1.829-6.019 3.736-13.708.8-3.445 1.499-5.97 1.868-7.57-1.292-.123-2.283-.194-2.96-.194-5.721 0-8.807 2.342-8.807 6.648 0 1.907.374 3.448 1.359 5.847l-5.047 2.159c-.8-2.091-1.043-3.01-1.043-4.61 0-4.429 2.52-8.06 7.133-10.336 2.707-1.292 6.641-1.99 11.5-1.99 1.538 0 2.836.082 5.605.267-.923 1.107-1.419 1.4-3.203 1.892l-3.203 12.859c1.046-.8 1.781-1.344 1.965-1.529l12.932-10.578c2.83-2.337 4.121-2.96 6.09-2.96zm32.778 1.529c-8.366 0-14.945 8.928-14.945 20.307 0 7.566 3.318 11.986 8.977 11.986 4.552 0 8.734-2.701 11.379-7.376 1.968-3.506 3.251-8.791 3.251-13.466 0-7.135-3.187-11.452-8.662-11.452zm-28.823 26.082c.738 1.292 1.025 1.798 1.456 2.475.062.065.693 1.04 1.431 2.086-1.661 1.722-2.224 2.16-4.561 3.882-1.169-1.414-2.395-3.402-2.887-4.755l1.65-1.286.558-.437c.492-.43.988-.844 1.48-1.213.369-.308.689-.567.873-.752zm50.441 0c.738 1.292 1.049 1.798 1.48 2.475.063.065.669 1.04 1.407 2.086-1.661 1.722-2.2 2.16-4.537 3.882-1.169-1.414-2.395-3.402-2.887-4.755l1.65-1.286.558-.437c.492-.43.988-.844 1.48-1.213.369-.308.665-.567.849-.752z" fill="#333" stroke="#000" stroke-width=".776" stroke-opacity=".569" transform="translate(0 -932.362)"/></svg>