<?xml version="1.0" encoding="UTF-8" standalone="no"?>
<!-- Created with Inkscape (http://www.inkscape.org/) -->

<svg
   xmlns:dc="http://purl.org/dc/elements/1.1/"
   xmlns:cc="http://creativecommons.org/ns#"
   xmlns:rdf="http://www.w3.org/1999/02/22-rdf-syntax-ns#"
   xmlns:svg="http://www.w3.org/2000/svg"
   xmlns="http://www.w3.org/2000/svg"
   version="1.1"
   width="120"
   height="120"
   id="svg2">
  <defs
     id="defs4" />
  <metadata
     id="metadata7">
    <rdf:RDF>
      <cc:Work
         rdf:about="">
        <dc:format>image/svg+xml</dc:format>
        <dc:type
           rdf:resource="http://purl.org/dc/dcmitype/StillImage" />
        <dc:title></dc:title>
      </cc:Work>
    </rdf:RDF>
  </metadata>
  <g
     transform="translate(0,-932.36218)"
     id="layer1">
    <path
       d="m 60.000003,932.7509 c -32.92462,0 -59.61181047,26.68723 -59.61181047,59.61177 0,32.92513 26.68719047,59.61133 59.61181047,59.61133 32.924599,0 59.611797,-26.6862 59.611797,-59.61133 0,-32.92454 -26.687198,-59.61177 -59.611797,-59.61177 z m 29.211491,38.55237 c 6.581734,0 10.14158,4.25917 10.14158,12.0096 0,7.3815 -2.461548,13.7697 -6.890463,18.07513 -4.613405,4.4292 -10.755031,7.0846 -16.352616,7.0846 -6.827838,0 -10.456943,-4.1841 -10.456943,-12.05843 0,-7.7503 2.770109,-14.5697 7.69107,-18.87561 4.244328,-3.62911 10.76188,-6.23529 15.867372,-6.23529 z m -36.344534,0.87337 c 1.107222,0 1.907412,0.18564 3.44521,0.80065 l -2.280626,4.56127 c -1.722334,-0.73804 -2.532089,-0.94623 -3.639317,-0.94623 -2.706515,0 -5.166714,1.62077 -14.824095,9.80184 l 3.445207,9.3894 c 3.137119,8.79603 4.01478,10.89623 5.798629,14.21703 1.783842,3.2609 3.936847,5.0469 6.089773,5.0469 2.091409,0 3.448173,-1.0319 5.847145,-4.4157 l 0.655073,5.0225 c -2.275937,0.8612 -3.38054,1.067 -5.410428,1.067 -4.551897,0 -8.284177,-1.6064 -10.990703,-4.6823 -2.214433,-2.5217 -4.075567,-6.7704 -6.720592,-15.38203 l -1.091789,-3.6878 c -0.738141,-2.2759 -0.746976,-2.3509 -1.116054,-3.3966 -0.12302,-0.4921 -0.313682,-0.9038 -0.436716,-1.3343 -1.968378,7.6888 -2.952468,9.2843 -10.456934,16.78903 l 7.44844,0 c -4.182811,2.5836 -4.316015,2.6447 -9.729072,2.6447 l -8.418926,0 2.717348,-2.6447 2.329155,0 c 4.736423,0 7.014704,-2.222 9.413675,-9.04943 0.984183,-2.8296 1.829476,-6.0192 3.736351,-13.7082 0.799657,-3.4447 1.499108,-5.97038 1.868172,-7.56969 -1.291742,-0.12312 -2.283331,-0.19417 -2.959963,-0.19417 -5.720619,0 -8.807122,2.34202 -8.807122,6.64779 0,1.90687 0.374481,3.44827 1.358675,5.84727 l -5.046505,2.1593 c -0.799653,-2.0915 -1.043267,-3.0105 -1.043267,-4.6099 0,-4.42886 2.519642,-8.05959 7.133039,-10.3356 2.706524,-1.29172 6.64075,-1.98951 11.500206,-1.98951 1.537797,0 2.836491,0.0824 5.604526,0.26698 -0.922681,1.10722 -1.418735,1.40025 -3.202588,1.89236 l -3.202589,12.85897 c 1.045713,-0.7998 1.780687,-1.344 1.965223,-1.5286 L 46.777193,975.1366 c 2.82955,-2.33744 4.121387,-2.95996 6.089767,-2.95996 z m 32.77801,1.52861 c -8.365628,0 -14.945408,8.92762 -14.945408,20.30722 0,7.56573 3.31785,11.98553 8.976954,11.98553 4.551891,0 8.733872,-2.7006 11.37889,-7.37563 1.968389,-3.5062 3.251091,-8.7906 3.251091,-13.4655 0,-7.13543 -3.186951,-11.45162 -8.661527,-11.45162 z m -28.823292,26.08162 c 0.738129,1.29183 1.02513,1.79813 1.455722,2.47533 0.06158,0.065 0.693319,1.0404 1.431459,2.086 -1.660828,1.722 -2.223807,2.1596 -4.561263,3.8816 -1.168731,-1.4141 -2.395086,-3.4018 -2.887181,-4.7551 l 1.649818,-1.2858 0.558027,-0.437 c 0.492095,-0.4303 0.987886,-0.844 1.479973,-1.2128 0.36908,-0.3077 0.688896,-0.56713 0.873445,-0.75223 z m 50.440722,0 c 0.73821,1.29183 1.04944,1.79813 1.48001,2.47533 0.0627,0.065 0.66904,1.0404 1.40723,2.086 -1.66087,1.722 -2.19959,2.1596 -4.53698,3.8816 -1.1688,-1.4141 -2.39507,-3.4018 -2.88717,-4.7551 l 1.64974,-1.2858 0.55811,-0.437 c 0.49209,-0.4303 0.98779,-0.844 1.4799,-1.2128 0.36906,-0.3077 0.66469,-0.56713 0.84916,-0.75223 z"
       id="path3759"
       style="fill:#333333;fill-opacity:1;stroke:#000000;stroke-width:0.77638507;stroke-opacity:0.56862745" />
  </g>
</svg>
